# xmcd
#
# Track frame offsets: 
#        150
#        8781
#        29226
#        50759
#        67321
#        85591
#        106120
#        128155
#        146308
#        166729
#        188123
#        206838
#        224075
#        248244
#        271923
#        291502
#        320887
#
# Disc length: 4703 seconds
#
# Revision: 1
# Processed by: cddbd v1.5.2PL0 Copyright (c) Steve Scherf et al.
# Submitted via: ExactAudioCopyFreeDBPlugin 1.0
#
DISCID=0f125d11
DTITLE=Ludacris - Theater of The Mind
DYEAR=2008
DGENRE=Hip-Hop
TTITLE0=Intro
TTITLE1=Undisputed (Co-Starring Floyd "Money" Mayweather)
TTITLE2=Wish You Would (Co-Starring T.I.)
TTITLE3=One More Drink (Co-Starring T-Pain)
TTITLE4=Call Up The Homies (Co-Starring The Game and Willy Northpole)
TTITLE5=Southern Gangsta (Co-Starring Rick Ross, Playaz Circle and Ving 
TTITLE5=Rhames)
TTITLE6=Everybody Hates Chris (Co-Starring Chris Rock)
TTITLE7=What Them Girls Like (Co-Starring Chris Brown and Sean Garrett)
TTITLE8=Nasty Girl (Co-Starring Plies)
TTITLE9=Contagious (Co-Starring Jamie Foxx)
TTITLE10=Last of a Dying Breed (Co-Starring Lil Wayne)
TTITLE11=MVP
TTITLE12=I Do It For Hip Hop (Co-Starring Nas and Jay-Z)
TTITLE13=Do The Right Thang (Co-Starring Common and Spike Lee)
TTITLE14=Let's Stay Together
TTITLE15=Press The Start Button
TTITLE16=Theater of The Mind [Video]
EXTD=YEAR: 2008
EXTT0=
EXTT1=
EXTT2=
EXTT3=
EXTT4=
EXTT5=
EXTT6=
EXTT7=
EXTT8=
EXTT9=
EXTT10=
EXTT11=
EXTT12=
EXTT13=
EXTT14=
EXTT15=
EXTT16=
PLAYORDER=
